<svg xmlns="http://www.w3.org/2000/svg" width="307.33" height="249.215" viewBox="0 0 307.33 249.215">
  <g id="Group_403" data-name="Group 403" transform="translate(-890.452 -459.093)">
    <g id="Group_400" data-name="Group 400" transform="translate(893.468 459.093)">
      <g id="Group_263" data-name="Group 263" transform="translate(156.299 7.754)">
        <path id="Path_215" data-name="Path 215" d="M391.7,518.206v0Z" transform="translate(-391.7 -517.6)" fill="#ef4c4b"/>
      </g>
      <g id="Group_271" data-name="Group 271" transform="translate(101.84 21.081)">
        <g id="Group_265" data-name="Group 265" transform="translate(0 11.631)">
          <path id="Path_217" data-name="Path 217" d="M310.039,596.6a136.8,136.8,0,0,1-2.544-32.227,8.264,8.264,0,0,0-.424-3.877,2.738,2.738,0,0,0-4.846-.424,4.176,4.176,0,0,0-.424.909,165.048,165.048,0,0,1,.3,35.862A31.585,31.585,0,0,0,310.039,596.6Z" transform="translate(-301.8 -558.801)" fill="#779193"/>
        </g>
        <g id="Group_266" data-name="Group 266" transform="translate(32.772)">
          <path id="Path_218" data-name="Path 218" d="M363.654,545.173a8.265,8.265,0,0,0-.424-3.877,2.738,2.738,0,0,0-4.846-.424c-1.03,1.636-.969,3.877-.727,6a13.115,13.115,0,0,1-1.575,4.786c-.363.727,1.939,1.272,2,.364a92.821,92.821,0,0,1-2.181,25.261,32.641,32.641,0,0,0,10.3.182A137.054,137.054,0,0,1,363.654,545.173Z" transform="translate(-355.9 -539.601)" fill="#779193"/>
        </g>
        <g id="Group_267" data-name="Group 267" transform="translate(13.928 3.756)">
          <path id="Path_219" data-name="Path 219" d="M333.156,551.373a8.266,8.266,0,0,0-.424-3.877,2.738,2.738,0,0,0-4.846-.424c-1.03,1.636-.969,3.877-.727,6a13.116,13.116,0,0,1-1.575,4.786,6.116,6.116,0,0,0-.788,2.3c-.061.848.424,1.817,1.09,1.817s1.09-.787,1.333-1.514a9,9,0,0,0,.363-2.181A92.819,92.819,0,0,1,325.4,583.54a32.638,32.638,0,0,0,10.3.182A137.818,137.818,0,0,1,333.156,551.373Z" transform="translate(-324.792 -545.801)" fill="#779193"/>
        </g>
        <g id="Group_268" data-name="Group 268" transform="translate(49.189 0.363)">
          <path id="Path_220" data-name="Path 220" d="M385.3,545.773a9.129,9.129,0,0,1,.363-3.877,2.452,2.452,0,0,1,4.483-.424c.969,1.636.909,3.877.727,6a14.192,14.192,0,0,0,1.454,4.786,7.311,7.311,0,0,1,.727,2.3c.061.848-.363,1.817-1.03,1.817-.606,0-1.03-.788-1.212-1.514a9.409,9.409,0,0,1-.3-2.181,100.532,100.532,0,0,0,2,25.261,27.869,27.869,0,0,1-9.511.182A156.023,156.023,0,0,0,385.3,545.773Z" transform="translate(-383 -540.201)" fill="#779193"/>
        </g>
        <g id="Group_269" data-name="Group 269" transform="translate(66.933 2.968)">
          <path id="Path_221" data-name="Path 221" d="M420.656,550.073a8.265,8.265,0,0,0-.424-3.877,2.738,2.738,0,0,0-4.846-.424c-1.03,1.636-.969,3.877-.727,6a13.115,13.115,0,0,1-1.575,4.786,6.117,6.117,0,0,0-.788,2.3c-.061.848.424,1.817,1.09,1.817s1.09-.787,1.333-1.514a9,9,0,0,0,.363-2.181A92.818,92.818,0,0,1,412.9,582.24a32.638,32.638,0,0,0,10.3.182A137.818,137.818,0,0,1,420.656,550.073Z" transform="translate(-412.292 -544.501)" fill="#779193"/>
        </g>
        <g id="Group_270" data-name="Group 270" transform="translate(83.718 10.419)">
          <path id="Path_222" data-name="Path 222" d="M447.754,562.373a8.264,8.264,0,0,0-.424-3.877,2.738,2.738,0,0,0-4.846-.424c-1.03,1.636-.969,3.877-.727,6-.121,1.7.363,6,.424,5.149A92.822,92.822,0,0,1,440,594.479a32.639,32.639,0,0,0,10.3.182A137.057,137.057,0,0,1,447.754,562.373Z" transform="translate(-440 -556.801)" fill="#779193"/>
        </g>
      </g>
      <g id="Group_315" data-name="Group 315" transform="translate(50.349 0)">
        <g id="Group_295" data-name="Group 295" transform="translate(0 157.622)">
          <ellipse id="Ellipse_10" data-name="Ellipse 10" cx="101.043" cy="7.633" rx="101.043" ry="7.633" fill="#986026"/>
        </g>
        <g id="Group_314" data-name="Group 314">
          <g id="Group_302" data-name="Group 302" transform="translate(50.94)">
            <g id="Group_296" data-name="Group 296" transform="translate(0 15.811)">
              <path id="Path_243" data-name="Path 243" d="M302.229,544.954a7.8,7.8,0,0,1-1.333-3.574c-.182-3.816,4.119-6.663,4.059-10.48a25.782,25.782,0,0,1,3.513,6.785,8.835,8.835,0,0,1-.909,7.33c-.909,1.212-2.6,2.12-3.938,1.393A3.22,3.22,0,0,1,302.229,544.954Z" transform="translate(-300.891 -530.9)" fill="#e2b330"/>
            </g>
            <g id="Group_297" data-name="Group 297" transform="translate(16.895 5.27)">
              <path id="Path_244" data-name="Path 244" d="M336.3,527.857a5.169,5.169,0,0,1-1.272,2.726,3.288,3.288,0,0,1-2.726,1.09,3.618,3.618,0,0,1-2.06-1.333c-1.817-2.3-1.7-5.573-.969-8.42.788-2.847,2.06-5.513,2.363-8.42a36.842,36.842,0,0,1,3.7,6.785A12.551,12.551,0,0,1,336.3,527.857Z" transform="translate(-328.78 -513.5)" fill="#e2b330"/>
            </g>
            <g id="Group_298" data-name="Group 298" transform="translate(34.42 0.969)">
              <path id="Path_245" data-name="Path 245" d="M361.52,523.725c-2.12-.485-3.513-2.665-3.756-4.786a14.149,14.149,0,0,1,1.09-6.3,21.006,21.006,0,0,0,1.575-6.239,37.862,37.862,0,0,1,4.18,6.6,11.484,11.484,0,0,1,.909,7.633C364.852,523.18,364.065,524.331,361.52,523.725Z" transform="translate(-357.71 -506.4)" fill="#e2b330"/>
            </g>
            <g id="Group_299" data-name="Group 299" transform="translate(51.588)">
              <path id="Path_246" data-name="Path 246" d="M391.109,525.275a3.9,3.9,0,0,1-4-1.575,6.282,6.282,0,0,1-1.03-4.3,17.7,17.7,0,0,1,1.09-4.362c1.151-3.392,2.3-6.785,3.453-10.238,2.12,4.967,4.3,10.238,3.635,15.629C394.077,522.428,393.108,524.73,391.109,525.275Z" transform="translate(-386.052 -504.8)" fill="#e2b330"/>
            </g>
            <g id="Group_300" data-name="Group 300" transform="translate(69.776 5.694)">
              <path id="Path_247" data-name="Path 247" d="M416.091,523.408A17.406,17.406,0,0,1,419.3,514.2c.909,1.938,1.757,3.938,2.665,5.876a21.049,21.049,0,0,1,2.12,6.785c.121,1.575-.3,3.392-1.757,4.119a3.44,3.44,0,0,1-2.787-.061,5.729,5.729,0,0,1-2.847-3.211A10.311,10.311,0,0,1,416.091,523.408Z" transform="translate(-416.077 -514.2)" fill="#e2b330"/>
            </g>
            <g id="Group_301" data-name="Group 301" transform="translate(86.286 13.872)">
              <path id="Path_248" data-name="Path 248" d="M445.735,543.39c-2.181-1.817-2.726-5.028-2.241-7.815s1.938-5.331,3.211-7.875c0,2.12,1.212,4.059,2.423,5.815s2.6,3.513,2.968,5.634-.606,4.664-2.665,5.21A4.219,4.219,0,0,1,445.735,543.39Z" transform="translate(-443.329 -527.7)" fill="#e2b330"/>
            </g>
          </g>
          <g id="Group_306" data-name="Group 306" transform="translate(43.151 52.587)">
            <g id="Group_303" data-name="Group 303" transform="translate(2.343 5.923)">
              <path id="Path_249" data-name="Path 249" d="M291.9,647.676c34.832,3.514,71.421,3.271,109.4,0V604.545a475.389,475.389,0,0,0-109.4,0Z" transform="translate(-291.9 -601.387)" fill="#ef5047"/>
            </g>
            <g id="Group_304" data-name="Group 304" transform="translate(3.595 6.192)">
              <path id="Path_250" data-name="Path 250" d="M315.371,633.494a11.072,11.072,0,0,0,11.934-1.878c1.757-1.636,2.968-3.816,4.362-5.755,1.454-1.938,3.332-3.756,5.694-4.18,5.028-.848,8.844,4.846,13.872,5.694,6.542,1.151,12.237-6.118,18.84-5.391,2.968.3,5.513,2.181,8.178,3.574s6,2.3,8.541.727c1.514-.969,2.665-2.787,4.422-2.847,1.636-.06,2.908,1.272,4.059,2.423s3.029,2.06,4.362,1.151a4.018,4.018,0,0,0,1.212-2.968c.424-3.7.787-7.754-1.151-10.964-1.817-3.029-5.331-4.6-8.663-5.755-25.018-8.9-53.066-6.24-78.084,2.665-4.967,1.757-9.874,3.816-13.993,7.088-2.3,1.878-4.422,4.24-4.907,7.209s1.272,6.361,4.18,6.906c2.847.485,5.513-1.757,8.42-1.757C309.859,629.375,312.4,632.162,315.371,633.494Z" transform="translate(-293.968 -601.832)" fill="#ed2939"/>
            </g>
            <g id="Group_305" data-name="Group 305">
              <path id="Path_251" data-name="Path 251" d="M368.1,610.141a11.744,11.744,0,0,0-7.814-5.028,8.925,8.925,0,0,0-8.42,3.392c-.969,1.333-1.514,2.968-2.423,4.422-.909,1.393-2.484,2.6-4.119,2.3-1.757-.3-2.787-2.12-4-3.392a9.788,9.788,0,0,0-14.054.3c-1.636,1.939-2.423,4.483-3.271,6.845-.848,2.423-1.939,4.846-4,6.421s-5.27,1.817-6.966-.121c-1.636-1.878-1.333-5.028-3.211-6.6-1.575-1.333-4.059-.969-5.815.121s-3.15,2.726-4.786,3.937c-1.7,1.272-3.938,2.06-5.815,1.212-2.362-1.03-2.968-4-3.332-6.542-.606-4.6-1.212-9.147-1.817-13.751-.242-1.817-.485-3.756.424-5.331,1.212-2.181,4-2.786,6.482-3.15a319.5,319.5,0,0,1,97.59.363c2.362.364,4.846.848,6.724,2.363,3.574,2.968,3.332,8.36,2.787,12.964a13.141,13.141,0,0,1-1.09,4.6,4.768,4.768,0,0,1-3.635,2.787c-2.847.242-4.725-2.665-6.6-4.725-2.665-2.847-7.391-4.483-10.54-2.12-1.938,1.454-3.15,4.18-5.513,4.543a4.7,4.7,0,0,1-4.119-1.878A40.883,40.883,0,0,1,368.1,610.141Z" transform="translate(-288.033 -591.61)" fill="#f1bf19"/>
            </g>
          </g>
          <g id="Group_308" data-name="Group 308" transform="translate(0 158.713)">
            <g id="Group_307" data-name="Group 307">
              <ellipse id="Ellipse_11" data-name="Ellipse 11" cx="101.043" cy="5.634" rx="101.043" ry="5.634" fill="#f1bf19"/>
            </g>
          </g>
          <g id="Group_309" data-name="Group 309" transform="translate(26.169 159.985)">
            <ellipse id="Ellipse_12" data-name="Ellipse 12" cx="75.358" cy="3.635" rx="75.358" ry="3.635" fill="#f8a01c"/>
          </g>
          <g id="Group_313" data-name="Group 313" transform="translate(27.666 96.126)">
            <g id="Group_310" data-name="Group 310" transform="translate(3.35 7.68)">
              <path id="Path_252" data-name="Path 252" d="M407.207,735.066c-44.343,4.422-90.866,4.119-139.207,0V680.183a604.449,604.449,0,0,1,139.207,0Z" transform="translate(-268 -676.162)" fill="#ef5047"/>
            </g>
            <g id="Group_311" data-name="Group 311" transform="translate(3.246 9.893)">
              <path id="Path_253" data-name="Path 253" d="M303.673,710.216c8.481,1.212,16.053-8.784,24.292-6.361,4.725,1.393,7.875,6.6,12.782,7.088,3.513.3,6.785-1.938,10.3-2.06,4.543-.121,8.239,3.271,11.691,6.24a34.606,34.606,0,0,0,9.632,6.239,15.1,15.1,0,0,0,11.267.182c4.24-1.817,8.057-6.118,12.418-4.907,2.484.727,4.725,3.211,7.209,2.484,2.6-.727,3.029-4.18,2.968-6.906-.121-5.27-.3-10.48-.424-15.75-.061-1.7-.182-3.574-1.454-4.664a6.585,6.585,0,0,0-2.847-1.151c-19.566-4.362-39.254-8.662-59.184-10.237s-40.466-.242-59.366,6.542c-5.149,1.878-10.54,4.362-13.388,9.026a10.421,10.421,0,0,0-1.454,8,6.9,6.9,0,0,0,5.876,5.21c4.664.363,8.057-4.664,12.6-5.452C292.709,702.825,297.555,709.368,303.673,710.216Z" transform="translate(-267.829 -679.815)" fill="#ed2939"/>
            </g>
            <g id="Group_312" data-name="Group 312">
              <path id="Path_254" data-name="Path 254" d="M306.165,687.24a15.132,15.132,0,0,1,9.935-6.421,11.5,11.5,0,0,1,10.722,4.3c1.212,1.757,1.878,3.816,3.089,5.573,1.151,1.757,3.15,3.332,5.27,2.968,2.241-.363,3.574-2.665,5.089-4.362,4.543-4.967,13.509-4.786,17.87.363,2.12,2.484,3.089,5.694,4.18,8.723s2.484,6.179,5.088,8.178,6.724,2.3,8.844-.182c2.12-2.363,1.7-6.361,4.059-8.42,2-1.7,5.149-1.211,7.451.121s4,3.453,6.118,5.028,4.967,2.665,7.39,1.575c2.968-1.333,3.816-5.088,4.24-8.36.788-5.815,1.575-11.691,2.363-17.507.3-2.3.606-4.786-.545-6.785-1.575-2.726-5.088-3.513-8.238-4a404.179,404.179,0,0,0-124.123.485c-3.029.485-6.179,1.09-8.541,3.029-4.543,3.756-4.24,10.662-3.574,16.538a17.739,17.739,0,0,0,1.393,5.876,6.141,6.141,0,0,0,4.6,3.574c3.574.3,6-3.392,8.42-6.058,3.392-3.635,9.389-5.694,13.448-2.726,2.484,1.817,4,5.331,7.027,5.815a5.944,5.944,0,0,0,5.21-2.362C304.166,690.753,305.014,688.876,306.165,687.24Z" transform="translate(-262.47 -663.484)" fill="#f1bf19"/>
            </g>
          </g>
        </g>
      </g>
      <g id="Group_348" data-name="Group 348" transform="translate(130.857 249.094)">
        <path id="Path_285" data-name="Path 285" d="M349.7,916.121v0Z" transform="translate(-349.7 -916)" fill="#ef4c4b"/>
      </g>
      <g id="Group_384" data-name="Group 384" transform="translate(99.296 56.317)">
        <path id="Path_321" data-name="Path 321" d="M297.6,603.6a332.86,332.86,0,0,1,52.642-4.18,108.764,108.764,0,0,0-48.159,2.363Z" transform="translate(-297.6 -597.767)" fill="#f3d78b"/>
      </g>
      <g id="Group_385" data-name="Group 385" transform="translate(179.879 56.337)">
        <path id="Path_322" data-name="Path 322" d="M450.6,601.253a75.608,75.608,0,0,0-18.718-3.453c-.485,0-1.03,0-1.212.424-.242.606.545,1.09,1.151,1.212a83.09,83.09,0,0,0,17.265,2.544C449.692,602.1,450.6,601.919,450.6,601.253Z" transform="translate(-430.626 -597.8)" fill="#f3d78b"/>
      </g>
      <g id="Group_386" data-name="Group 386" transform="translate(83.485 99.362)">
        <path id="Path_323" data-name="Path 323" d="M306.029,675.171c12.54-.909,25.2-1.878,37.5-4.725a24.289,24.289,0,0,0-9.087-1.514,184.785,184.785,0,0,0-62.94,8.844C282.949,676.867,294.519,676.019,306.029,675.171Z" transform="translate(-271.5 -668.826)" fill="#f3d78b"/>
      </g>
      <g id="Group_387" data-name="Group 387" transform="translate(164.356 100.548)">
        <path id="Path_324" data-name="Path 324" d="M405,673.1c16.719,1.09,33.378,2.181,50.158,2.484a112.949,112.949,0,0,0-41.738-4.422A21.963,21.963,0,0,0,405,673.1Z" transform="translate(-405 -670.783)" fill="#f3d78b"/>
      </g>
      <g id="Group_388" data-name="Group 388" transform="translate(80.43 122.003)">
        <path id="Path_325" data-name="Path 325" d="M269.39,711.107c0-1.938-1.393-3.513-2.726-4.907a5.332,5.332,0,0,0,1.393,5.27c.3.3.788.545,1.09.3A.721.721,0,0,0,269.39,711.107Z" transform="translate(-266.456 -706.2)" fill="#f3d78b"/>
      </g>
      <g id="Group_389" data-name="Group 389" transform="translate(111.516 114.612)">
        <path id="Path_326" data-name="Path 326" d="M327.724,694c-3.635,2-5.937,6.118-9.935,7.39a1.524,1.524,0,0,0,1.09,1.636,2.515,2.515,0,0,0,2.06-.363,7.44,7.44,0,0,0,1.575-1.514C324.089,699.27,327,696.363,327.724,694Z" transform="translate(-317.772 -694)" fill="#f3d78b"/>
      </g>
      <g id="Group_390" data-name="Group 390" transform="translate(146.486 116.757)">
        <path id="Path_327" data-name="Path 327" d="M382.89,697.576c-2.484.3-4.967.666-7.39.969a4.243,4.243,0,0,0,8.3-.182.66.66,0,0,0-.121-.666A.864.864,0,0,0,382.89,697.576Z" transform="translate(-375.5 -697.54)" fill="#f3d78b"/>
      </g>
      <g id="Group_391" data-name="Group 391" transform="translate(186.08 124.208)">
        <path id="Path_328" data-name="Path 328" d="M443.49,721.689a1.914,1.914,0,0,1-2.12-1.09c-1.151-2-.182-4.6,1.272-6.421a11.43,11.43,0,0,1,10.177-4.24,3.146,3.146,0,0,1,1.757.666,1.41,1.41,0,0,1,.364,1.7,2.486,2.486,0,0,1-1.7.787,11.176,11.176,0,0,0-8.3,6.724C444.52,720.538,444.217,721.447,443.49,721.689Z" transform="translate(-440.862 -709.841)" fill="#f3d78b"/>
      </g>
      <g id="Group_392" data-name="Group 392" transform="translate(214.242 127.983)">
        <path id="Path_329" data-name="Path 329" d="M487.563,716.331a3.117,3.117,0,0,0-.121,1.817,1.726,1.726,0,0,0,1.151,1.333,1.68,1.68,0,0,0,1.938-.969,1.81,1.81,0,0,0-.666-2.06A2.255,2.255,0,0,0,487.563,716.331Z" transform="translate(-487.352 -716.072)" fill="#f3d78b"/>
      </g>
      <g id="Group_393" data-name="Group 393" transform="translate(98.024 73.192)">
        <path id="Path_330" data-name="Path 330" d="M300.043,633.727a3.615,3.615,0,0,1-2.847.242c-1.151-.545-1.514-2.06-1.7-3.332.666,1.211,2.484,1.272,3.7.606a14.98,14.98,0,0,0,2.968-2.908,10.271,10.271,0,0,1,4-2.544c.485-.182,1.09-.3,1.454.121s.121,1.09-.182,1.575A16.507,16.507,0,0,1,300.043,633.727Z" transform="translate(-295.5 -625.625)" fill="#f3d78b"/>
      </g>
      <g id="Group_394" data-name="Group 394" transform="translate(121.271 67.995)">
        <path id="Path_331" data-name="Path 331" d="M338.615,632.465a3.82,3.82,0,0,1-3.271,1.151c-1.151-.3-1.939-1.878-1.151-2.786a3.545,3.545,0,0,1,1.03-.606c1.939-.969,3.029-2.968,3.877-4.967.788-2,1.393-4.119,2.726-5.815s3.574-2.908,5.634-2.181C342.916,621.076,343.038,628.467,338.615,632.465Z" transform="translate(-333.876 -617.045)" fill="#f3d78b"/>
      </g>
      <g id="Group_395" data-name="Group 395" transform="translate(154.724 61.48)">
        <path id="Path_332" data-name="Path 332" d="M389.1,612.233a12.334,12.334,0,0,1,10.419-3.7c.121-.909-.848-1.575-1.7-1.878a8.2,8.2,0,0,0-6.421.666C389.464,608.416,389.524,610.052,389.1,612.233Z" transform="translate(-389.1 -606.29)" fill="#f3d78b"/>
      </g>
      <g id="Group_396" data-name="Group 396" transform="translate(186.77 67.31)">
        <path id="Path_333" data-name="Path 333" d="M442,616.148a28.582,28.582,0,0,1,12.479,5.088c.485.363,1.09.727,1.636.485.666-.3.606-1.333.242-1.939a6.139,6.139,0,0,0-3.029-2.181A21.355,21.355,0,0,0,442,616.148Z" transform="translate(-442 -615.915)" fill="#f3d78b"/>
      </g>
      <g id="Group_404" data-name="Group 404" transform="translate(73.493 197.471) rotate(177)">
        <g id="Group_21" data-name="Group 21" transform="translate(57.432 1.643)">
          <path id="Path_6" data-name="Path 6" d="M.027,1.149C.061.7.2.155.644.018A.742.742,0,0,1,1.4.326a1.592,1.592,0,0,1,.309.788A7.506,7.506,0,0,1,.678,6.291,17.645,17.645,0,0,1,.027,1.149Z" transform="translate(0)" fill="#f1bf19"/>
        </g>
        <g id="Group_22" data-name="Group 22" transform="translate(50.096 0)">
          <path id="Path_7" data-name="Path 7" d="M12.539,2.449c-.891,2.468-1.782,4.936-2.674,7.439a13.4,13.4,0,0,0,.617-7.336A3.627,3.627,0,0,0,9.625.6,1.7,1.7,0,0,0,7.672.152c-.72.377-.857,1.3-.96,2.091l-.72,6.582A12.372,12.372,0,0,0,4.072,1.9C3.489.975,2.53.015,1.467.255A2.03,2.03,0,0,0,.027,2.072,5.915,5.915,0,0,0,.37,4.506c1.3,4.9,2.262,10.352.068,14.912a8.281,8.281,0,0,0,7.953-.926,13.677,13.677,0,0,0,4.868-6.685,41.861,41.861,0,0,0,1.817-8.159,4.129,4.129,0,0,0,0-1.714,1.278,1.278,0,0,0-1.268-.96C13.122,1.078,12.779,1.832,12.539,2.449Z" transform="translate(0)" fill="#779193"/>
        </g>
        <g id="Group_23" data-name="Group 23" transform="translate(52.844 10.707)">
          <path id="Path_8" data-name="Path 8" d="M3.93.483a6.332,6.332,0,0,1,.48,2.64,1.465,1.465,0,0,1,1.577-1.2A1.439,1.439,0,0,1,7.152,3.5a2.493,2.493,0,0,1-.96,1.405c-.583.548-1.166,1.063-1.782,1.577A2.277,2.277,0,0,1,3.244,7.1C2.181,7.2,1.461,5.9.433,5.762.3,4.322.159,2.848.022,1.409a1.467,1.467,0,0,1,.24-1.2A1.034,1.034,0,0,1,1.77.552,3,3,0,0,1,2.01,2.3,2.832,2.832,0,0,1,3.93.483Z" transform="translate(0 0)" fill="#f1bf19"/>
        </g>
        <g id="Group_24" data-name="Group 24" transform="translate(18.82 14.972)">
          <path id="Path_9" data-name="Path 9" d="M6.313,37.731c-1.542-1.2-2.365-3.119-3.085-4.971-2.5-6.479-4.662-13.815-2.023-20.225,1.988-4.8,6.41-8.261,11.278-10.113S22.6.16,27.807.023c3.5-.1,7.4.034,9.941,2.5,1.92,1.885,2.571,4.7,2.639,7.4.137,6.616-2.914,13.061-7.473,17.86S22.356,35.846,16.083,38.005C12.9,39.1,9.022,39.822,6.313,37.731Z" transform="translate(0)" fill="#545680"/>
        </g>
        <g id="Group_25" data-name="Group 25" transform="translate(27.733 36.063)">
          <path id="Path_10" data-name="Path 10" d="M.039,14.275A12.891,12.891,0,0,1,.862,8.961,15.551,15.551,0,0,1,4.53,3,10.2,10.2,0,0,1,10.769.014a3.2,3.2,0,0,1,1.885.308,1.427,1.427,0,0,1,.685,1.645,2.078,2.078,0,0,1,2.674.617,2.1,2.1,0,0,1-.446,2.708,1.722,1.722,0,0,1,1.714,1.3,2.553,2.553,0,0,1-.514,2.194,4.366,4.366,0,0,1-1.92,1.3c.411-.1.754.343.72.754a1.626,1.626,0,0,1-.617,1.028c-2.914,2.914-7.1,4.114-11.141,4.765-1.063.171-2.331.24-3.085-.514A2.926,2.926,0,0,1,.039,14.275Z" transform="translate(0 0)" fill="#3a3b4f"/>
        </g>
        <g id="Group_26" data-name="Group 26" transform="translate(0 34.103)">
          <path id="Path_11" data-name="Path 11" d="M24.173,7.219A60.927,60.927,0,0,0,.452,29.844,9.925,9.925,0,0,1,3.982,18.977,2.672,2.672,0,0,1,.726,16.749a4.35,4.35,0,0,1,1.92-3.874,12.893,12.893,0,0,1,4.182-1.748,4.206,4.206,0,0,1-1.1-4.868A4.117,4.117,0,0,1,10.153,4c-1.337-.583-.994-2.811.274-3.531,1.268-.754,2.845-.446,4.251-.1A69.1,69.1,0,0,1,25.03,3.791a2.237,2.237,0,0,1,.823.514C26.676,5.3,25.3,6.6,24.173,7.219Z" transform="translate(0 0)" fill="#779193"/>
        </g>
        <g id="Group_27" data-name="Group 27" transform="translate(46.425 38.052)">
          <path id="Path_12" data-name="Path 12" d="M21.249,2.825A31.427,31.427,0,0,0,1.161.8,1.494,1.494,0,0,0,.3,3.168C8.188,13.9,11.548,27.335,14.7,40.361A17.859,17.859,0,0,0,16.9,25.141a4.476,4.476,0,0,0,5.965.686,5.756,5.756,0,0,0,1.954-5.965,8.244,8.244,0,0,0-4.079-5c1.268,1.577,4.114.926,5-.891A4.775,4.775,0,0,0,24.2,8.55a9.986,9.986,0,0,0-5.656-1.885A4.073,4.073,0,0,0,21.249,2.825Z" transform="translate(0 0)" fill="#779193"/>
        </g>
        <g id="Group_28" data-name="Group 28" transform="translate(29.247 38.362)">
          <path id="Path_13" data-name="Path 13" d="M5.245,13.484a6.9,6.9,0,0,1-2.3.72,2.765,2.765,0,0,1-2.228-.72c-.994-.994-.754-2.605-.48-3.976.514-2.4,1.063-4.9,2.571-6.856C4.285.7,6.959-.605,9.256.286a5.189,5.189,0,0,1,3.051,4.628,7.565,7.565,0,0,1-2.194,5.279A15.659,15.659,0,0,1,5.245,13.484Z" transform="translate(0 0)" fill="#f7fbff"/>
        </g>
        <g id="Group_29" data-name="Group 29" transform="translate(31.174 42.49)">
          <path id="Path_14" data-name="Path 14" d="M4.688.854a4.183,4.183,0,0,1,.925,3.668,5.35,5.35,0,0,1-2.16,3.154,2.309,2.309,0,0,1-2.434.411A2.124,2.124,0,0,1,.163,6.613,6.829,6.829,0,0,1,1.432.957,2.762,2.762,0,0,1,2.46.1,2.152,2.152,0,0,1,4.688.854Z" transform="translate(0 0)" fill="#12383a"/>
        </g>
        <g id="Group_30" data-name="Group 30" transform="translate(32.653 46.922)">
          <path id="Path_15" data-name="Path 15" d="M.056,1.736A1.943,1.943,0,0,1,.125.57.821.821,0,0,1,1.05.022.748.748,0,0,1,1.565.6a2.22,2.22,0,0,1,0,.823,1.534,1.534,0,0,1-.309.857.713.713,0,0,1-.823.24C.193,2.387.125,2.044.056,1.736Z" transform="translate(0 0)" fill="#f7fbff"/>
        </g>
        <g id="Group_31" data-name="Group 31" transform="translate(11.49 32.689)">
          <path id="Path_16" data-name="Path 16" d="M25.573,3.319c-.137.274-.514.274-.823.309a7.974,7.974,0,0,0-6.342,4.045c-.1.171-.206.377-.308.583-.651,2.194-1.508,4.559-1.954,6.616a2.244,2.244,0,0,1-2.777,1.714,28.807,28.807,0,0,1-7.4-2.948C2.948,11.786.411,8.838,0,5.342A82.385,82.385,0,0,1,9.118,3.079a45.631,45.631,0,0,1,4.456-2.3A12.03,12.03,0,0,1,25.2,2.531C25.47,2.7,25.744,3.045,25.573,3.319Z" transform="translate(0 0)" fill="#fbf28e"/>
        </g>
        <g id="Group_32" data-name="Group 32" transform="translate(12.038 32.621)">
          <path id="Path_17" data-name="Path 17" d="M25.024,3.388c-.137.274-.514.274-.823.309a7.21,7.21,0,0,0-4.9,2.262,6.911,6.911,0,0,0-3.017-1.234C10.7,4.21,5.142,8.05,0,5.2A80.208,80.208,0,0,1,8.57,3.079a45.637,45.637,0,0,1,4.456-2.3A12.031,12.031,0,0,1,24.647,2.531C24.921,2.771,25.2,3.114,25.024,3.388Z" transform="translate(0 0)" fill="#f1bf19"/>
        </g>
        <g id="Group_33" data-name="Group 33" transform="translate(19.785 15.599)">
          <path id="Path_18" data-name="Path 18" d="M.035,16.09C.618,10.64,4.628,5.978,9.5,3.441S19.985.185,25.47.013c2.434-.069,5.176.069,6.822,1.851A5.847,5.847,0,0,1,33.629,6.7a13.2,13.2,0,0,1-1.92,4.8,19.47,19.47,0,0,1-4.148,5A10.364,10.364,0,0,1,21.6,18.936c-3.839.171-7.336-2.331-11.175-2.742a10.507,10.507,0,0,0-6.273,1.268,8.023,8.023,0,0,1-1.885.926,1.848,1.848,0,0,1-1.92-.48A2.6,2.6,0,0,1,.035,16.09Z" transform="translate(0)" fill="#454765"/>
        </g>
        <g id="Group_34" data-name="Group 34" transform="translate(59.173 60.484)">
          <path id="Path_19" data-name="Path 19" d="M4.045,9.221a8.353,8.353,0,0,1-.72,3.531c-.308.617-.857,1.234-1.508,1.1A85.558,85.558,0,0,1,0,0,12.69,12.69,0,0,1,4.045,9.221Z" transform="translate(0 0)" fill="#12383a"/>
        </g>
        <g id="Group_35" data-name="Group 35" transform="translate(61.093 52.909)">
          <path id="Path_20" data-name="Path 20" d="M4.319,9.358a2.021,2.021,0,0,0,1.92.137A2.653,2.653,0,0,0,7.3,7.576,6.32,6.32,0,0,0,7.3,4.8,5.528,5.528,0,0,0,4.285,1.543,37.507,37.507,0,0,0,0,0,26.445,26.445,0,0,0,1.885,6.2,6.231,6.231,0,0,0,4.319,9.358Z" transform="translate(0 0)" fill="#12383a"/>
        </g>
        <g id="Group_36" data-name="Group 36" transform="translate(61.71 47.262)">
          <path id="Path_21" data-name="Path 21" d="M6.856.573A7.578,7.578,0,0,0,0,1.121a6.535,6.535,0,0,0,6.342,3.7c1.063-.1,2.228-.617,2.434-1.645A1.939,1.939,0,0,0,8.3,1.533,4.24,4.24,0,0,0,6.856.573Z" transform="translate(0 0)" fill="#12383a"/>
        </g>
        <g id="Group_37" data-name="Group 37" transform="translate(57.493 40.259)">
          <path id="Path_22" data-name="Path 22" d="M1.474,2.434A7.978,7.978,0,0,0,4.285,3.942,3.284,3.284,0,0,0,7.3,3.325a1.509,1.509,0,0,0,.514-1.577A2.056,2.056,0,0,0,6.41.686,10.1,10.1,0,0,0,3.085,0,4.383,4.383,0,0,0,0,1.165Z" transform="translate(0 0)" fill="#12383a"/>
        </g>
        <g id="Group_38" data-name="Group 38" transform="translate(54.476 49.206)">
          <path id="Path_23" data-name="Path 23" d="M5.142,7.4c.377-1.028-.274-2.16-.925-3.017A39.165,39.165,0,0,0,0,0C1.063,2.331,2.125,4.7,3.188,7.027c.24.548.651,1.165,1.234,1.1C4.765,8.09,5,7.747,5.142,7.4Z" transform="translate(0 0)" fill="#fbf28e"/>
        </g>
        <g id="Group_39" data-name="Group 39" transform="translate(54.751 46.018)">
          <path id="Path_24" data-name="Path 24" d="M4.765,2.194A13.713,13.713,0,0,0,0,0,12.779,12.779,0,0,0,3.462,3.942a2.315,2.315,0,0,0,1.131.446,1.041,1.041,0,0,0,1.028-.548,1.068,1.068,0,0,0-.137-.96A2.752,2.752,0,0,0,4.765,2.194Z" transform="translate(0 0)" fill="#fbf28e"/>
        </g>
        <g id="Group_40" data-name="Group 40" transform="translate(52.283 42.008)">
          <path id="Path_25" data-name="Path 25" d="M4.148,2.742a1.415,1.415,0,0,0,1.234-.137.863.863,0,0,0,.24-.96A1.732,1.732,0,0,0,4.49.788,13.465,13.465,0,0,0,0,0,7,7,0,0,0,4.148,2.742Z" transform="translate(0 0)" fill="#fbf28e"/>
        </g>
        <g id="Group_41" data-name="Group 41" transform="translate(22.733 24.855)">
          <path id="Path_26" data-name="Path 26" d="M5.485,3.715A4.146,4.146,0,0,1,9.393,2.584a4.264,4.264,0,0,1,3.017,2.742,5.717,5.717,0,0,1,7.062,1.337,3.2,3.2,0,0,0-2.16-2.777,7.946,7.946,0,0,0-3.7-.274,5.159,5.159,0,0,0-7.919-2.4A3.436,3.436,0,0,0,2.537.047,3.374,3.374,0,0,0,0,2.241a3.517,3.517,0,0,1,3.154-.754A3.754,3.754,0,0,1,5.485,3.715Z" transform="translate(0 0)" fill="#87889d"/>
        </g>
        <g id="Group_42" data-name="Group 42" transform="translate(27.807 19.497)">
          <path id="Path_27" data-name="Path 27" d="M0,2.389a3.862,3.862,0,0,1,3.017-.343A3.766,3.766,0,0,1,5.279,4.068,3.605,3.605,0,0,1,8.57,3.794a3.63,3.63,0,0,1,2.091,2.537,3.189,3.189,0,0,1,5.108,2.262A2.588,2.588,0,0,0,14.775,5.3a5.41,5.41,0,0,0-3.668-.617A3.467,3.467,0,0,0,5.9,1.771,1.606,1.606,0,0,0,4.662.092,3.843,3.843,0,0,0,2.434.3C1.371.675.24,1.292,0,2.389Z" transform="translate(0 0)" fill="#87889d"/>
        </g>
        <g id="Group_43" data-name="Group 43" transform="translate(38.502 16.832)">
          <path id="Path_28" data-name="Path 28" d="M3.085,3.854A2.166,2.166,0,0,1,6.308,6.082a3.208,3.208,0,0,1,4.285,2.4,3.157,3.157,0,0,0-.48-2.811,3.063,3.063,0,0,0-2.605-1.2,1.658,1.658,0,0,0-.548-2.365,4.466,4.466,0,0,0-2.674-.48A2.423,2.423,0,0,0,2.3.015,2.45,2.45,0,0,0,0,1.112a2.372,2.372,0,0,1,2.4.446A2.3,2.3,0,0,1,3.085,3.854Z" transform="translate(0 0)" fill="#87889d"/>
        </g>
        <g id="Group_44" data-name="Group 44" transform="translate(51.294 1.11)">
          <path id="Path_29" data-name="Path 29" d="M.612,0a.887.887,0,0,1,.377.24A5.9,5.9,0,0,1,2.463,3.567a14.573,14.573,0,0,1-.069,3.668A8.163,8.163,0,0,1,.029.79C.063.413.235-.032.612,0Z" transform="translate(0 0)" fill="#f1bf19"/>
        </g>
        <g id="Group_45" data-name="Group 45" transform="translate(62.228 2.997)">
          <path id="Path_30" data-name="Path 30" d="M1.847,0A5.347,5.347,0,0,1,.03,5.245,8.141,8.141,0,0,1,.27,2.365,4.172,4.172,0,0,1,1.847,0Z" transform="translate(0)" fill="#f1bf19"/>
        </g>
        <g id="Group_46" data-name="Group 46" transform="translate(33.772 2.558)">
          <path id="Path_31" data-name="Path 31" d="M4.182,5.787a1.838,1.838,0,0,0-.548.72.727.727,0,0,0,.171.823c.411.343,1.165,0,1.542.377a.778.778,0,0,1-.24,1.131,2.644,2.644,0,0,1-1.268.274,1.892,1.892,0,0,0-1.234.377,2,2,0,0,0-.446.891,7.972,7.972,0,0,0-.1,3.6A4.355,4.355,0,0,0,0,14.8,49.844,49.844,0,0,1,1.954,7.089,15.59,15.59,0,0,1,6.342.542,1.55,1.55,0,0,1,7.816.062,1.305,1.305,0,0,1,8.33,1.708,4.541,4.541,0,0,1,6.547,4,23.743,23.743,0,0,0,4.182,5.787Z" fill="#12383a"/>
        </g>
        <g id="Group_47" data-name="Group 47" transform="translate(32.151 15.054)">
          <path id="Path_32" data-name="Path 32" d="M5.014.387c1.1.72,1.406,2.194,1.577,3.5A1.667,1.667,0,0,0,4.4,3.644,3.433,3.433,0,0,0,3.06,5.6,2.572,2.572,0,0,0,.009,4.981a5.3,5.3,0,0,1,1.2-3.908A3.117,3.117,0,0,1,5.014.387Z" transform="translate(0)" fill="#3a3b4f"/>
        </g>
        <g id="Group_48" data-name="Group 48" transform="translate(42.959 5.883)">
          <path id="Path_33" data-name="Path 33" d="M4.182,5.787a1.839,1.839,0,0,0-.548.72.727.727,0,0,0,.171.823c.411.343,1.166,0,1.542.377a.778.778,0,0,1-.24,1.131,2.645,2.645,0,0,1-1.268.274,1.891,1.891,0,0,0-1.234.377,2,2,0,0,0-.446.891,7.972,7.972,0,0,0-.1,3.6A4.354,4.354,0,0,0,0,14.8,49.86,49.86,0,0,1,1.954,7.089,16.142,16.142,0,0,1,6.342.542,1.55,1.55,0,0,1,7.816.062,1.3,1.3,0,0,1,8.33,1.707,4.541,4.541,0,0,1,6.547,4C5.759,4.587,4.9,5.135,4.182,5.787Z" transform="translate(0 0)" fill="#12383a"/>
        </g>
        <g id="Group_49" data-name="Group 49" transform="translate(41.338 18.398)">
          <path id="Path_34" data-name="Path 34" d="M5.014.4c1.1.72,1.406,2.194,1.577,3.5A1.667,1.667,0,0,0,4.4,3.659,3.548,3.548,0,0,0,3.06,5.613,2.572,2.572,0,0,0,.009,5a5.3,5.3,0,0,1,1.2-3.908A3.079,3.079,0,0,1,5.014.4Z" transform="translate(0 0)" fill="#3a3b4f"/>
        </g>
        <g id="Group_50" data-name="Group 50" transform="translate(23.83 33.759)">
          <path id="Path_35" data-name="Path 35" d="M0,2.01A8.188,8.188,0,0,1,8.021,3.415,2.259,2.259,0,0,0,7.062.536,4.846,4.846,0,0,0,3.805.09,6.65,6.65,0,0,0,0,2.01Z" transform="translate(0 0)" fill="#12383a"/>
        </g>
        <g id="Group_51" data-name="Group 51" transform="translate(12.587 39.505)">
          <path id="Path_36" data-name="Path 36" d="M12.341,7.816a1.966,1.966,0,0,1,.994.274c.274.206.343.72.034.891A16.088,16.088,0,0,1,0,0C2.982,4.045,7.37,7.3,12.341,7.816Z" transform="translate(0 0)" fill="#f7fbff"/>
        </g>
        <g id="Group_52" data-name="Group 52" transform="translate(48.409 35.899)">
          <path id="Path_37" data-name="Path 37" d="M5.553,1.241A.955.955,0,0,0,5.108.315,2.2,2.2,0,0,0,4.079.041,6.074,6.074,0,0,0,1.851.178,3.373,3.373,0,0,0,0,1.378,7.253,7.253,0,0,1,5.553,1.241Z" transform="translate(0 0)" fill="#3a3b4f"/>
        </g>
        <g id="Group_53" data-name="Group 53" transform="translate(50.089 31.642)">
          <path id="Path_38" data-name="Path 38" d="M0,1.418a5.036,5.036,0,0,1,5.176.446A1.906,1.906,0,0,0,3.531.013C2.64-.124.72.87,0,1.418Z" transform="translate(0 0)" fill="#3a3b4f"/>
        </g>
        <g id="Group_54" data-name="Group 54" transform="translate(53.551 28.053)">
          <path id="Path_39" data-name="Path 39" d="M2.742,1.1A.7.7,0,0,0,2.537.277,1.255,1.255,0,0,0,1.714,0,2.166,2.166,0,0,0,0,.757,3.506,3.506,0,0,1,2.742,1.1Z" transform="translate(0 0)" fill="#3a3b4f"/>
        </g>
        <g id="Group_55" data-name="Group 55" transform="translate(54.339 23.408)">
          <path id="Path_40" data-name="Path 40" d="M3.325,1.22A1.038,1.038,0,0,0,2.605.054a1.951,1.951,0,0,0-1.44.24A7.684,7.684,0,0,0,0,1.22,2.945,2.945,0,0,1,3.325,1.22Z" transform="translate(0 0)" fill="#3a3b4f"/>
        </g>
        <g id="Group_56" data-name="Group 56" transform="translate(2.046 47.839)">
          <path id="Path_41" data-name="Path 41" d="M2.211.236A9.312,9.312,0,0,1,6.222.2,16.521,16.521,0,0,1,2.314,2.978a2.011,2.011,0,0,1-1.748.24A1.4,1.4,0,0,1,.257,1.264,3.035,3.035,0,0,1,2.211.236Z" transform="translate(0 0)" fill="#12383a"/>
        </g>
        <g id="Group_57" data-name="Group 57" transform="translate(6.678 40.281)">
          <path id="Path_42" data-name="Path 42" d="M4.915,2.721a5.768,5.768,0,0,1-3.154.651C.7,3.166-.3,2.07.082,1.041A2,2,0,0,1,2.858.253,5.418,5.418,0,0,1,4.915,2.721Z" transform="translate(0 0)" fill="#12383a"/>
        </g>
      </g>
      <g id="Group_58" data-name="Group 58" transform="translate(231.909 122.903) rotate(3)">
        <g id="Group_21-2" data-name="Group 21" transform="translate(57.432 70.479)">
          <path id="Path_6-2" data-name="Path 6" d="M.027,5.142c.034.446.171.994.617,1.131A.742.742,0,0,0,1.4,5.965a1.592,1.592,0,0,0,.309-.788A7.506,7.506,0,0,0,.678,0,17.645,17.645,0,0,0,.027,5.142Z" fill="#f1bf19"/>
        </g>
        <g id="Group_22-2" data-name="Group 22" transform="translate(50.096 58.36)">
          <path id="Path_7-2" data-name="Path 7" d="M12.539,17.6c-.891-2.468-1.782-4.936-2.674-7.439a13.4,13.4,0,0,1,.617,7.336,3.627,3.627,0,0,1-.857,1.954,1.7,1.7,0,0,1-1.954.446c-.72-.377-.857-1.3-.96-2.091l-.72-6.582a12.372,12.372,0,0,1-1.92,6.925c-.583.926-1.543,1.885-2.605,1.645a2.03,2.03,0,0,1-1.44-1.817A5.915,5.915,0,0,1,.37,15.547c1.3-4.9,2.262-10.352.068-14.912a8.281,8.281,0,0,1,7.953.926,13.677,13.677,0,0,1,4.868,6.685A41.861,41.861,0,0,1,15.076,16.4a4.129,4.129,0,0,1,0,1.714,1.278,1.278,0,0,1-1.268.96C13.122,18.975,12.779,18.221,12.539,17.6Z" fill="#779193"/>
        </g>
        <g id="Group_23-2" data-name="Group 23" transform="translate(52.844 60.601)">
          <path id="Path_8-2" data-name="Path 8" d="M3.93,6.622a6.332,6.332,0,0,0,.48-2.64,1.465,1.465,0,0,0,1.577,1.2A1.439,1.439,0,0,0,7.152,3.605,2.493,2.493,0,0,0,6.192,2.2C5.609,1.651,5.026,1.137,4.41.623A2.277,2.277,0,0,0,3.244.006C2.181-.1,1.461,1.206.433,1.343.3,2.782.159,4.256.022,5.7a1.467,1.467,0,0,0,.24,1.2A1.034,1.034,0,0,0,1.77,6.553,3,3,0,0,0,2.01,4.8,2.832,2.832,0,0,0,3.93,6.622Z" fill="#f1bf19"/>
        </g>
        <g id="Group_24-2" data-name="Group 24" transform="translate(18.82 24.371)">
          <path id="Path_9-2" data-name="Path 9" d="M6.313,1.338c-1.542,1.2-2.365,3.119-3.085,4.971-2.5,6.479-4.662,13.815-2.023,20.225,1.988,4.8,6.41,8.261,11.278,10.113s10.112,2.262,15.323,2.4c3.5.1,7.4-.034,9.941-2.5,1.92-1.885,2.571-4.7,2.639-7.4.137-6.616-2.914-13.061-7.473-17.86S22.356,3.224,16.083,1.064C12.9-.033,9.022-.753,6.313,1.338Z" fill="#545680"/>
        </g>
        <g id="Group_25-2" data-name="Group 25" transform="translate(27.733 25.598)">
          <path id="Path_10-2" data-name="Path 10" d="M.039,2.477A12.891,12.891,0,0,0,.862,7.79,15.551,15.551,0,0,0,4.53,13.755a10.2,10.2,0,0,0,6.239,2.982,3.2,3.2,0,0,0,1.885-.308,1.427,1.427,0,0,0,.685-1.645,2.005,2.005,0,0,0,2.228-3.325,1.722,1.722,0,0,0,1.714-1.3,2.553,2.553,0,0,0-.514-2.194,4.366,4.366,0,0,0-1.92-1.3c.411.1.754-.343.72-.754a1.626,1.626,0,0,0-.617-1.028C12.037,1.963,7.855.763,3.81.112,2.747-.06,1.479-.128.725.626A2.926,2.926,0,0,0,.039,2.477Z" fill="#3a3b4f"/>
        </g>
        <g id="Group_26-2" data-name="Group 26" transform="translate(0 14.466)">
          <path id="Path_11-2" data-name="Path 11" d="M24.173,22.625A60.927,60.927,0,0,1,.452,0,9.925,9.925,0,0,0,3.982,10.867,2.672,2.672,0,0,0,.726,13.095a4.35,4.35,0,0,0,1.92,3.874,12.893,12.893,0,0,0,4.182,1.748,4.206,4.206,0,0,0-1.1,4.868,4.117,4.117,0,0,0,4.422,2.262c-1.337.583-.994,2.811.274,3.531,1.268.754,2.845.446,4.251.1A69.1,69.1,0,0,0,25.03,26.053a2.237,2.237,0,0,0,.823-.514C26.676,24.544,25.3,23.242,24.173,22.625Z" fill="#779193"/>
        </g>
        <g id="Group_27-2" data-name="Group 27" transform="translate(46.425 0)">
          <path id="Path_12-2" data-name="Path 12" d="M21.249,37.536A31.427,31.427,0,0,1,1.161,39.559,1.494,1.494,0,0,1,.3,37.193C8.188,26.464,11.548,13.026,14.7,0A17.859,17.859,0,0,1,16.9,15.22a4.476,4.476,0,0,1,5.965-.686A5.756,5.756,0,0,1,24.814,20.5a8.244,8.244,0,0,1-4.079,5c1.268-1.577,4.114-.926,5,.891A4.775,4.775,0,0,1,24.2,31.811,9.986,9.986,0,0,1,18.541,33.7,4.073,4.073,0,0,1,21.249,37.536Z" fill="#779193"/>
        </g>
        <g id="Group_28-2" data-name="Group 28" transform="translate(29.246 25.834)">
          <path id="Path_13-2" data-name="Path 13" d="M5.245.733a6.9,6.9,0,0,0-2.3-.72A2.765,2.765,0,0,0,.72.733c-.994.994-.754,2.605-.48,3.976.514,2.4,1.063,4.9,2.571,6.856,1.474,1.954,4.148,3.257,6.445,2.365A5.189,5.189,0,0,0,12.306,9.3a7.565,7.565,0,0,0-2.194-5.279A15.659,15.659,0,0,0,5.245.733Z" fill="#f7fbff"/>
        </g>
        <g id="Group_29-2" data-name="Group 29" transform="translate(31.174 27.629)">
          <path id="Path_14-2" data-name="Path 14" d="M4.688,7.439a4.183,4.183,0,0,0,.925-3.668A5.35,5.35,0,0,0,3.454.617,2.309,2.309,0,0,0,1.021.206,2.124,2.124,0,0,0,.164,1.68,6.829,6.829,0,0,0,1.432,7.336a2.762,2.762,0,0,0,1.028.857A2.152,2.152,0,0,0,4.688,7.439Z" fill="#12383a"/>
        </g>
        <g id="Group_30-2" data-name="Group 30" transform="translate(32.653 28.912)">
          <path id="Path_15-2" data-name="Path 15" d="M.056.843A1.943,1.943,0,0,0,.125,2.008a.821.821,0,0,0,.926.548.748.748,0,0,0,.514-.583,2.22,2.22,0,0,0,0-.823A1.534,1.534,0,0,0,1.256.294.713.713,0,0,0,.433.054C.193.192.125.534.056.843Z" fill="#f7fbff"/>
        </g>
        <g id="Group_31-2" data-name="Group 31" transform="translate(11.49 29.057)">
          <path id="Path_16-2" data-name="Path 16" d="M25.573,13.347c-.137-.274-.514-.274-.823-.309a7.974,7.974,0,0,1-6.342-4.045c-.1-.171-.206-.377-.308-.583-.651-2.194-1.508-4.559-1.954-6.616A2.244,2.244,0,0,0,13.369.08a28.807,28.807,0,0,0-7.4,2.948C2.948,4.88.411,7.828,0,11.324a82.385,82.385,0,0,0,9.118,2.262,45.631,45.631,0,0,0,4.456,2.3A12.03,12.03,0,0,0,25.2,14.135C25.47,13.964,25.744,13.621,25.573,13.347Z" fill="#fbf28e"/>
        </g>
        <g id="Group_32-2" data-name="Group 32" transform="translate(12.038 39.527)">
          <path id="Path_17-2" data-name="Path 17" d="M25.024,2.877c-.137-.274-.514-.274-.823-.309A7.21,7.21,0,0,1,19.3.306,6.911,6.911,0,0,1,16.283,1.54C10.7,2.054,5.142-1.785,0,1.06A80.208,80.208,0,0,0,8.57,3.186a45.636,45.636,0,0,0,4.456,2.3A12.031,12.031,0,0,0,24.647,3.734C24.921,3.494,25.2,3.151,25.024,2.877Z" fill="#f1bf19"/>
        </g>
        <g id="Group_33-2" data-name="Group 33" transform="translate(19.785 43.87)">
          <path id="Path_18-2" data-name="Path 18" d="M.035,2.854C.618,8.3,4.628,12.966,9.5,15.5s10.49,3.257,15.974,3.428c2.434.069,5.176-.069,6.822-1.851a5.847,5.847,0,0,0,1.337-4.833,13.2,13.2,0,0,0-1.92-4.8,19.47,19.47,0,0,0-4.148-5A10.364,10.364,0,0,0,21.6.008c-3.839-.171-7.336,2.331-11.175,2.742A10.507,10.507,0,0,1,4.148,1.482,8.023,8.023,0,0,0,2.263.557a1.848,1.848,0,0,0-1.92.48A2.6,2.6,0,0,0,.035,2.854Z" fill="#454765"/>
        </g>
        <g id="Group_34-2" data-name="Group 34" transform="translate(59.173 4.06)">
          <path id="Path_19-2" data-name="Path 19" d="M4.045,4.647a8.353,8.353,0,0,0-.72-3.531C3.017.5,2.468-.118,1.817.019A85.558,85.558,0,0,0,0,13.868,12.69,12.69,0,0,0,4.045,4.647Z" fill="#12383a"/>
        </g>
        <g id="Group_35-2" data-name="Group 35" transform="translate(61.092 15.82)">
          <path id="Path_20-2" data-name="Path 20" d="M4.319.326A2.021,2.021,0,0,1,6.239.189,2.653,2.653,0,0,1,7.3,2.108a6.32,6.32,0,0,1,0,2.777A5.528,5.528,0,0,1,4.285,8.142,37.507,37.507,0,0,1,0,9.684a26.445,26.445,0,0,1,1.885-6.2A6.231,6.231,0,0,1,4.319.326Z" fill="#12383a"/>
        </g>
        <g id="Group_36-2" data-name="Group 36" transform="translate(61.709 26.303)">
          <path id="Path_21-2" data-name="Path 21" d="M6.856,4.275A7.578,7.578,0,0,1,0,3.726,6.535,6.535,0,0,1,6.342.024C7.4.127,8.57.641,8.776,1.669A1.939,1.939,0,0,1,8.3,3.315,4.24,4.24,0,0,1,6.856,4.275Z" fill="#12383a"/>
        </g>
        <g id="Group_37-2" data-name="Group 37" transform="translate(57.493 34.087)">
          <path id="Path_22-2" data-name="Path 22" d="M1.474,1.632A7.978,7.978,0,0,1,4.285.124,3.284,3.284,0,0,1,7.3.741a1.509,1.509,0,0,1,.514,1.577A2.056,2.056,0,0,1,6.41,3.38a10.1,10.1,0,0,1-3.325.686A4.383,4.383,0,0,1,0,2.9Z" fill="#12383a"/>
        </g>
        <g id="Group_38-2" data-name="Group 38" transform="translate(54.476 21.077)">
          <path id="Path_23-2" data-name="Path 23" d="M5.142.725c.377,1.028-.274,2.16-.925,3.017A39.165,39.165,0,0,1,0,8.13C1.063,5.8,2.125,3.433,3.188,1.1c.24-.548.651-1.165,1.234-1.1C4.765.04,5,.382,5.142.725Z" fill="#fbf28e"/>
        </g>
        <g id="Group_39-2" data-name="Group 39" transform="translate(54.751 28.003)">
          <path id="Path_24-2" data-name="Path 24" d="M4.765,2.2A13.713,13.713,0,0,1,0,4.392,12.779,12.779,0,0,1,3.462.449,2.315,2.315,0,0,1,4.594,0,1.041,1.041,0,0,1,5.622.552a1.068,1.068,0,0,1-.137.96A2.752,2.752,0,0,1,4.765,2.2Z" fill="#fbf28e"/>
        </g>
        <g id="Group_40-2" data-name="Group 40" transform="translate(52.282 33.587)">
          <path id="Path_25-2" data-name="Path 25" d="M4.148.076A1.415,1.415,0,0,1,5.382.213a.863.863,0,0,1,.24.96,1.732,1.732,0,0,1-1.131.857A13.465,13.465,0,0,1,0,2.818,7,7,0,0,1,4.148.076Z" fill="#fbf28e"/>
        </g>
        <g id="Group_41-2" data-name="Group 41" transform="translate(22.733 46.895)">
          <path id="Path_26-2" data-name="Path 26" d="M5.485,2.948A4.146,4.146,0,0,0,9.393,4.079a4.264,4.264,0,0,0,3.017-2.742A5.717,5.717,0,0,0,19.471,0a3.2,3.2,0,0,1-2.16,2.777,7.945,7.945,0,0,1-3.7.274A5.186,5.186,0,0,1,10.25,6.239,5.144,5.144,0,0,1,5.69,5.45,3.436,3.436,0,0,1,2.537,6.616,3.374,3.374,0,0,1,0,4.422a3.517,3.517,0,0,0,3.154.754A3.754,3.754,0,0,0,5.485,2.948Z" fill="#87889d"/>
        </g>
        <g id="Group_42-2" data-name="Group 42" transform="translate(27.807 50.323)">
          <path id="Path_27-2" data-name="Path 27" d="M0,6.2a3.862,3.862,0,0,0,3.017.343A3.766,3.766,0,0,0,5.279,4.525,3.605,3.605,0,0,0,8.57,4.8a3.63,3.63,0,0,0,2.091-2.537,3.293,3.293,0,0,0,3.222.377A3.262,3.262,0,0,0,15.769,0a2.588,2.588,0,0,1-.994,3.291,5.41,5.41,0,0,1-3.668.617A3.467,3.467,0,0,1,5.9,6.822,1.606,1.606,0,0,1,4.662,8.5,3.843,3.843,0,0,1,2.434,8.3C1.371,7.919.24,7.3,0,6.2Z" fill="#87889d"/>
        </g>
        <g id="Group_43-2" data-name="Group 43" transform="translate(38.502 53.099)">
          <path id="Path_28-2" data-name="Path 28" d="M3.085,4.628a2.2,2.2,0,0,0,2.331-.1A2.181,2.181,0,0,0,6.307,2.4a3.255,3.255,0,0,0,2.708-.206A3.232,3.232,0,0,0,10.592,0a3.157,3.157,0,0,1-.48,2.811,3.063,3.063,0,0,1-2.605,1.2,1.658,1.658,0,0,1-.548,2.365,4.466,4.466,0,0,1-2.674.48A2.423,2.423,0,0,1,2.3,8.467,2.45,2.45,0,0,1,0,7.37a2.372,2.372,0,0,0,2.4-.446A2.3,2.3,0,0,0,3.085,4.628Z" fill="#87889d"/>
        </g>
        <g id="Group_44-2" data-name="Group 44" transform="translate(51.293 70.068)">
          <path id="Path_29-2" data-name="Path 29" d="M.612,7.233a.887.887,0,0,0,.377-.24A5.9,5.9,0,0,0,2.463,3.668,14.573,14.573,0,0,0,2.394,0,8.163,8.163,0,0,0,.029,6.445C.064,6.822.235,7.267.612,7.233Z" fill="#f1bf19"/>
        </g>
        <g id="Group_45-2" data-name="Group 45" transform="translate(62.227 70.17)">
          <path id="Path_30-2" data-name="Path 30" d="M1.847,5.245A5.347,5.347,0,0,0,.03,0,8.141,8.141,0,0,0,.27,2.879,4.172,4.172,0,0,0,1.847,5.245Z" fill="#f1bf19"/>
        </g>
        <g id="Group_46-2" data-name="Group 46" transform="translate(33.771 61.052)">
          <path id="Path_31-2" data-name="Path 31" d="M4.182,9.016a1.838,1.838,0,0,1-.548-.72.727.727,0,0,1,.171-.823c.411-.343,1.165,0,1.542-.377a.778.778,0,0,0-.24-1.131A2.644,2.644,0,0,0,3.839,5.69a1.892,1.892,0,0,1-1.234-.377,2,2,0,0,1-.446-.891,7.972,7.972,0,0,1-.1-3.6A4.355,4.355,0,0,1,0,0,49.844,49.844,0,0,0,1.954,7.713,15.59,15.59,0,0,0,6.342,14.26a1.55,1.55,0,0,0,1.474.48,1.305,1.305,0,0,0,.514-1.645,4.541,4.541,0,0,0-1.783-2.3A23.743,23.743,0,0,1,4.182,9.016Z" fill="#12383a"/>
        </g>
        <g id="Group_47-2" data-name="Group 47" transform="translate(32.151 57.761)">
          <path id="Path_32-2" data-name="Path 32" d="M5.014,5.211c1.1-.72,1.406-2.194,1.577-3.5a1.667,1.667,0,0,1-2.194.24A3.433,3.433,0,0,1,3.06,0,2.572,2.572,0,0,1,.009.617a5.3,5.3,0,0,0,1.2,3.908A3.117,3.117,0,0,0,5.014,5.211Z" fill="#3a3b4f"/>
        </g>
        <g id="Group_48-2" data-name="Group 48" transform="translate(42.958 57.727)">
          <path id="Path_33-2" data-name="Path 33" d="M4.182,9.016a1.839,1.839,0,0,1-.548-.72.727.727,0,0,1,.171-.823c.411-.343,1.166,0,1.542-.377a.778.778,0,0,0-.24-1.131A2.645,2.645,0,0,0,3.839,5.69a1.891,1.891,0,0,1-1.234-.377,2,2,0,0,1-.446-.891,7.972,7.972,0,0,1-.1-3.6A4.354,4.354,0,0,1,0,0,49.86,49.86,0,0,0,1.954,7.713,16.142,16.142,0,0,0,6.342,14.26a1.55,1.55,0,0,0,1.474.48,1.3,1.3,0,0,0,.514-1.645,4.541,4.541,0,0,0-1.782-2.3C5.759,10.215,4.9,9.667,4.182,9.016Z" fill="#12383a"/>
        </g>
        <g id="Group_49-2" data-name="Group 49" transform="translate(41.338 54.402)">
          <path id="Path_34-2" data-name="Path 34" d="M5.014,5.211c1.1-.72,1.406-2.194,1.577-3.5a1.667,1.667,0,0,1-2.194.24A3.548,3.548,0,0,1,3.06,0,2.572,2.572,0,0,1,.009.617a5.3,5.3,0,0,0,1.2,3.908A3.079,3.079,0,0,0,5.014,5.211Z" fill="#3a3b4f"/>
        </g>
        <g id="Group_50-2" data-name="Group 50" transform="translate(23.83 41.238)">
          <path id="Path_35-2" data-name="Path 35" d="M0,1.405A8.188,8.188,0,0,0,8.021,0a2.259,2.259,0,0,1-.96,2.879,4.846,4.846,0,0,1-3.256.446A6.65,6.65,0,0,1,0,1.405Z" fill="#12383a"/>
        </g>
        <g id="Group_51-2" data-name="Group 51" transform="translate(12.587 29.926)">
          <path id="Path_36-2" data-name="Path 36" d="M12.341,1.166a1.966,1.966,0,0,0,.994-.274c.274-.206.343-.72.034-.891A16.088,16.088,0,0,0,0,8.981C2.982,4.936,7.37,1.68,12.341,1.166Z" fill="#f7fbff"/>
        </g>
        <g id="Group_52-2" data-name="Group 52" transform="translate(48.409 41.136)">
          <path id="Path_37-2" data-name="Path 37" d="M5.553.137a.955.955,0,0,1-.446.926,2.2,2.2,0,0,1-1.028.274A6.074,6.074,0,0,1,1.851,1.2,3.373,3.373,0,0,1,0,0,7.253,7.253,0,0,0,5.553.137Z" fill="#3a3b4f"/>
        </g>
        <g id="Group_53-2" data-name="Group 53" transform="translate(50.089 44.906)">
          <path id="Path_38-2" data-name="Path 38" d="M0,.446A5.036,5.036,0,0,0,5.176,0,1.906,1.906,0,0,1,3.531,1.851C2.64,1.988.72.994,0,.446Z" fill="#3a3b4f"/>
        </g>
        <g id="Group_54-2" data-name="Group 54" transform="translate(53.551 49.26)">
          <path id="Path_39-2" data-name="Path 39" d="M2.743,0a.7.7,0,0,1-.206.823,1.255,1.255,0,0,1-.823.274A2.166,2.166,0,0,1,0,.343,3.506,3.506,0,0,0,2.743,0Z" fill="#3a3b4f"/>
        </g>
        <g id="Group_55-2" data-name="Group 55" transform="translate(54.339 53.785)">
          <path id="Path_40-2" data-name="Path 40" d="M3.325,0a1.038,1.038,0,0,1-.72,1.165,1.951,1.951,0,0,1-1.44-.24A7.684,7.684,0,0,1,0,0,2.945,2.945,0,0,0,3.325,0Z" fill="#3a3b4f"/>
        </g>
        <g id="Group_56-2" data-name="Group 56" transform="translate(2.046 27.234)">
          <path id="Path_41-2" data-name="Path 41" d="M2.211,3.1a9.312,9.312,0,0,0,4.011.034A16.521,16.521,0,0,0,2.314.361,2.011,2.011,0,0,0,.565.121,1.4,1.4,0,0,0,.257,2.075,3.035,3.035,0,0,0,2.211,3.1Z" fill="#12383a"/>
        </g>
        <g id="Group_57-2" data-name="Group 57" transform="translate(6.678 34.708)">
          <path id="Path_42-2" data-name="Path 42" d="M4.915.7A5.768,5.768,0,0,0,1.761.052C.7.257-.3,1.354.082,2.383a2,2,0,0,0,2.777.788A5.418,5.418,0,0,0,4.915.7Z" fill="#12383a"/>
        </g>
      </g>
      <g id="Group_402" data-name="Group 402" transform="translate(53.505 152.136) rotate(3)">
        <g id="Group_17" data-name="Group 17" transform="translate(0 0)">
          <path id="Path_2" data-name="Path 2" d="M193.227,76.889l-.548-.137,4.731-18.545c.617-2.4,1.1-4.868,0-6.822a9.582,9.582,0,0,0-1.885-2.228c-1.2-1.166-2.4-2.4-2.331-4.114.069-1.851,1.611-3.085,3.12-4.285,1.543-1.234,2.982-2.4,2.674-4.079-.274-1.474-1.783-2.125-3.394-2.777-1.405-.583-2.845-1.165-3.634-2.4-1.2-1.885-.309-4.354.891-6.033.377-.514.788-.994,1.166-1.474a11.744,11.744,0,0,0,2.262-3.5c1.1-3.222-.823-6.513-2.708-9.7-1.851-3.154-3.771-6.445-2.777-9.7A258.129,258.129,0,0,1,76.3,27.869a247.847,247.847,0,0,1-33.08-2.194C30.433,23.961,14.63,20.534,5.649,8.947c-2.674,1.817-2.365,6.033-.891,9.29l.823,1.748c1.337,2.777,2.708,5.622,2.022,8.6a14.225,14.225,0,0,1-1.954,4.045C4.517,34.451,3.455,36.2,3.8,38.153a8.259,8.259,0,0,0,1.1,2.537,9.618,9.618,0,0,1,1.131,2.571c.548,2.5-.96,4.936-2.16,6.547-.171.24-.377.48-.548.72C2.152,52.105.918,53.716.61,55.6a4.574,4.574,0,0,0,1.063,3.6,2.65,2.65,0,0,0,2.125.926l.034.548a3.114,3.114,0,0,1-2.571-1.1,4.99,4.99,0,0,1-1.2-4.045A12.471,12.471,0,0,1,2.872,50.22c.171-.24.377-.48.548-.72,1.131-1.508,2.537-3.805,2.057-6.1A8.3,8.3,0,0,0,4.415,41,9.957,9.957,0,0,1,3.249,38.29c-.377-2.16.788-4.045,1.92-5.9a14.987,14.987,0,0,0,1.885-3.874c.651-2.777-.686-5.553-1.988-8.227-.274-.583-.583-1.2-.857-1.783C2.632,14.98,2.358,10.284,5.546,8.4l.206-.137.137.206C14.7,20.054,30.467,23.516,43.254,25.2A257.205,257.205,0,0,0,191.136.343L191.822,0l-.309.686c-1.405,3.222.48,6.445,2.5,9.838,1.954,3.291,3.942,6.719,2.742,10.181a11.823,11.823,0,0,1-2.365,3.668c-.377.48-.789.96-1.166,1.44-1.131,1.543-1.954,3.771-.891,5.416.686,1.1,2.057,1.645,3.394,2.194,1.645.686,3.359,1.405,3.736,3.188.377,1.988-1.268,3.325-2.845,4.593-1.405,1.131-2.845,2.3-2.914,3.874-.069,1.474,1.028,2.537,2.194,3.668a11.391,11.391,0,0,1,1.954,2.331c1.2,2.125.686,4.765.034,7.233Z" fill="#12383a"/>
        </g>
        <g id="Group_18" data-name="Group 18" transform="translate(17.441 18.271)">
          <path id="Path_3" data-name="Path 3" d="M0,0,8.3,45.935,29.343,7.1Z" fill="#545680"/>
        </g>
        <g id="Group_19" data-name="Group 19" transform="translate(67.489 25.881)">
          <path id="Path_4" data-name="Path 4" d="M0,1.2S34.52.172,34.005,0,17.277,42.987,17.277,42.987Z" fill="#3a3b4f"/>
        </g>
        <g id="Group_20" data-name="Group 20" transform="translate(124.633 13.095)">
          <path id="Path_5" data-name="Path 5" d="M0,8.638,36.782,0l-8.3,47.82Z" fill="#545680"/>
        </g>
      </g>
    </g>
  </g>
</svg>
