<svg xmlns="http://www.w3.org/2000/svg" width="140" height="140" viewBox="0 0 140 140">
  <g id="Group_7" data-name="Group 7" transform="translate(0.371 0.325)">
    <circle id="_316811327_1176068913312477_777787172877957768_n" data-name="316811327_1176068913312477_777787172877957768_n" cx="70" cy="70" r="70" transform="translate(-0.371 -0.325)" fill="#e2e2e2"/>
    <path id="arrow-bar-right" d="M23.733,19.139a1.3,1.3,0,0,1-1.3,1.3H7.426L12.989,26a1.3,1.3,0,1,1-1.835,1.835L3.381,20.057a1.3,1.3,0,0,1,0-1.835l7.774-7.774a1.3,1.3,0,1,1,1.835,1.835L7.426,17.844H22.437A1.3,1.3,0,0,1,23.733,19.139Zm6.478,18.139a1.3,1.3,0,0,0,1.3-1.3V2.3a1.3,1.3,0,0,0-2.591,0V35.983A1.3,1.3,0,0,0,30.211,37.278Z" transform="translate(52.375 50.535)" fill="#0a2b2c" fill-rule="evenodd"/>
  </g>
</svg>
