<svg xmlns="http://www.w3.org/2000/svg" width="76" height="76" viewBox="0 0 76 76"><defs><style>.a{fill:#1222c4;}</style></defs><path class="a" d="M38,76A38.01,38.01,0,0,1,23.209,2.986,38.01,38.01,0,0,1,52.791,73.013,37.763,37.763,0,0,1,38,76ZM30.037,39a.991.991,0,0,0-.7.29l-7.257,8.666v3.981a1.993,1.993,0,0,0,1.99,1.991H51.933a1.993,1.993,0,0,0,1.991-1.991V42.976L44.415,35.12a.995.995,0,0,0-1.148.185L35.882,44.68l-5.294-5.517A.991.991,0,0,0,30.037,39Zm.992-16.919a4.976,4.976,0,1,0,4.976,4.976A4.981,4.981,0,0,0,31.029,22.077Z"/></svg>