<svg xmlns="http://www.w3.org/2000/svg" xmlns:xlink="http://www.w3.org/1999/xlink" width="210" height="210" viewBox="0 0 210 210">
  <defs>
    <filter id="Rectangle_1" x="0" y="0" width="210" height="210" filterUnits="userSpaceOnUse">
      <feOffset dy="2" input="SourceAlpha"/>
      <feGaussianBlur stdDeviation="5" result="blur"/>
      <feFlood flood-color="#4a4a4a" flood-opacity="0.161"/>
      <feComposite operator="in" in2="blur"/>
      <feComposite in="SourceGraphic"/>
    </filter>
  </defs>
  <g id="Group_1" data-name="Group 1" transform="translate(-1187 -447)">
    <g transform="matrix(1, 0, 0, 1, 1187, 447)" filter="url(#Rectangle_1)">
      <rect id="Rectangle_1-2" data-name="Rectangle 1" width="180" height="180" rx="31" transform="translate(15 13)" fill="#fff"/>
    </g>
    <path id="Union_5" data-name="Union 5" d="M0,103,56.168,0V103S48.659,74.518,0,103Zm103.507-1.143a.2.2,0,0,1-.2-.2V94.394a.2.2,0,0,1,.2-.2h7.16a.2.2,0,0,1,.2.2v7.263a.2.2,0,0,1-.2.2Zm-20.157,0a.2.2,0,0,1-.2-.2V94.394a.2.2,0,0,1,.2-.2H98.069a.2.2,0,0,1,.2.2v7.263a.2.2,0,0,1-.2.2Zm-20.158,0a.2.2,0,0,1-.2-.2V94.394a.2.2,0,0,1,.2-.2H77.91a.2.2,0,0,1,.2.2v7.263a.2.2,0,0,1-.2.2ZM95.948,89.085a.2.2,0,0,1-.2-.2V81.621a.2.2,0,0,1,.2-.2h9.679a.2.2,0,0,1,.2.2v7.264a.2.2,0,0,1-.2.2Zm-20.157,0a.2.2,0,0,1-.2-.2V81.621a.2.2,0,0,1,.2-.2H90.509a.2.2,0,0,1,.2.2v7.264a.2.2,0,0,1-.2.2Zm-12.6,0a.2.2,0,0,1-.2-.2V81.621a.2.2,0,0,1,.2-.2h7.16a.2.2,0,0,1,.2.2v7.264a.2.2,0,0,1-.2.2ZM83.35,76.313a.2.2,0,0,1-.2-.2V68.849a.2.2,0,0,1,.2-.2H98.069a.2.2,0,0,1,.2.2v7.263a.2.2,0,0,1-.2.2Zm-20.158,0a.2.2,0,0,1-.2-.2V68.849a.2.2,0,0,1,.2-.2H77.91a.2.2,0,0,1,.2.2v7.263a.2.2,0,0,1-.2.2Zm12.6-12.773a.2.2,0,0,1-.2-.2V56.077a.2.2,0,0,1,.2-.2H90.509a.2.2,0,0,1,.2.2V63.34a.2.2,0,0,1-.2.2Zm-12.6,0a.2.2,0,0,1-.2-.2V56.077a.2.2,0,0,1,.2-.2h7.16a.2.2,0,0,1,.2.2V63.34a.2.2,0,0,1-.2.2ZM83.35,50.768a.2.2,0,0,1-.2-.2V43.3a.2.2,0,0,1,.2-.2h4.64a.2.2,0,0,1,.2.2v7.264a.2.2,0,0,1-.2.2Zm-20.158,0a.2.2,0,0,1-.2-.2V43.3a.2.2,0,0,1,.2-.2H77.91a.2.2,0,0,1,.2.2v7.264a.2.2,0,0,1-.2.2ZM73.271,38a.2.2,0,0,1-.2-.2V30.533a.2.2,0,0,1,.2-.2h7.16a.2.2,0,0,1,.2.2V37.8a.2.2,0,0,1-.2.2ZM63.192,38a.2.2,0,0,1-.2-.2V30.533a.2.2,0,0,1,.2-.2h4.639a.2.2,0,0,1,.2.2V37.8a.2.2,0,0,1-.2.2Zm0-12.772a.2.2,0,0,1-.2-.2V17.76a.2.2,0,0,1,.2-.2H77.91a.2.2,0,0,1,.2.2v7.264a.2.2,0,0,1-.2.2Zm0-12.772a.2.2,0,0,1-.2-.2V4.988a.2.2,0,0,1,.2-.2h4.639a.2.2,0,0,1,.2.2v7.263a.2.2,0,0,1-.2.2Z" transform="translate(1231.567 498.5)" fill="#101010"/>
  </g>
</svg>
